# Blender 4.1.1
# www.blender.org
mtllib cylinder.mtl
o Cylinder.001
v 0.000000 -1.000000 -1.000000
v 0.000000 1.000000 -1.000000
v 0.065403 -1.000000 -0.997859
v 0.065403 1.000000 -0.997859
v 0.130526 -1.000000 -0.991445
v 0.130526 1.000000 -0.991445
v 0.195090 -1.000000 -0.980785
v 0.195090 1.000000 -0.980785
v 0.258819 -1.000000 -0.965926
v 0.258819 1.000000 -0.965926
v 0.321439 -1.000000 -0.946930
v 0.321439 1.000000 -0.946930
v 0.382683 -1.000000 -0.923880
v 0.382683 1.000000 -0.923880
v 0.442289 -1.000000 -0.896873
v 0.442289 1.000000 -0.896873
v 0.500000 -1.000000 -0.866025
v 0.500000 1.000000 -0.866025
v 0.555570 -1.000000 -0.831470
v 0.555570 1.000000 -0.831470
v 0.608761 -1.000000 -0.793353
v 0.608761 1.000000 -0.793353
v 0.659346 -1.000000 -0.751840
v 0.659346 1.000000 -0.751840
v 0.707107 -1.000000 -0.707107
v 0.707107 1.000000 -0.707107
v 0.751840 -1.000000 -0.659346
v 0.751840 1.000000 -0.659346
v 0.793353 -1.000000 -0.608761
v 0.793353 1.000000 -0.608761
v 0.831470 -1.000000 -0.555570
v 0.831470 1.000000 -0.555570
v 0.866025 -1.000000 -0.500000
v 0.866025 1.000000 -0.500000
v 0.896873 -1.000000 -0.442289
v 0.896873 1.000000 -0.442289
v 0.923880 -1.000000 -0.382683
v 0.923880 1.000000 -0.382683
v 0.946930 -1.000000 -0.321439
v 0.946930 1.000000 -0.321439
v 0.965926 -1.000000 -0.258819
v 0.965926 1.000000 -0.258819
v 0.980785 -1.000000 -0.195090
v 0.980785 1.000000 -0.195090
v 0.991445 -1.000000 -0.130526
v 0.991445 1.000000 -0.130526
v 0.997859 -1.000000 -0.065403
v 0.997859 1.000000 -0.065403
v 1.000000 -1.000000 0.000000
v 1.000000 1.000000 0.000000
v 0.997859 -1.000000 0.065403
v 0.997859 1.000000 0.065403
v 0.991445 -1.000000 0.130526
v 0.991445 1.000000 0.130526
v 0.980785 -1.000000 0.195090
v 0.980785 1.000000 0.195090
v 0.965926 -1.000000 0.258819
v 0.965926 1.000000 0.258819
v 0.946930 -1.000000 0.321439
v 0.946930 1.000000 0.321439
v 0.923880 -1.000000 0.382683
v 0.923880 1.000000 0.382683
v 0.896873 -1.000000 0.442289
v 0.896873 1.000000 0.442289
v 0.866025 -1.000000 0.500000
v 0.866025 1.000000 0.500000
v 0.831470 -1.000000 0.555570
v 0.831470 1.000000 0.555570
v 0.793353 -1.000000 0.608761
v 0.793353 1.000000 0.608761
v 0.751840 -1.000000 0.659346
v 0.751840 1.000000 0.659346
v 0.707107 -1.000000 0.707107
v 0.707107 1.000000 0.707107
v 0.659346 -1.000000 0.751840
v 0.659346 1.000000 0.751840
v 0.608761 -1.000000 0.793353
v 0.608761 1.000000 0.793353
v 0.555570 -1.000000 0.831470
v 0.555570 1.000000 0.831470
v 0.500000 -1.000000 0.866025
v 0.500000 1.000000 0.866025
v 0.442289 -1.000000 0.896873
v 0.442289 1.000000 0.896873
v 0.382683 -1.000000 0.923880
v 0.382683 1.000000 0.923880
v 0.321439 -1.000000 0.946930
v 0.321439 1.000000 0.946930
v 0.258819 -1.000000 0.965926
v 0.258819 1.000000 0.965926
v 0.195090 -1.000000 0.980785
v 0.195090 1.000000 0.980785
v 0.130526 -1.000000 0.991445
v 0.130526 1.000000 0.991445
v 0.065403 -1.000000 0.997859
v 0.065403 1.000000 0.997859
v 0.000000 -1.000000 1.000000
v 0.000000 1.000000 1.000000
v -0.065403 -1.000000 0.997859
v -0.065403 1.000000 0.997859
v -0.130526 -1.000000 0.991445
v -0.130526 1.000000 0.991445
v -0.195090 -1.000000 0.980785
v -0.195090 1.000000 0.980785
v -0.258819 -1.000000 0.965926
v -0.258819 1.000000 0.965926
v -0.321439 -1.000000 0.946930
v -0.321439 1.000000 0.946930
v -0.382683 -1.000000 0.923880
v -0.382683 1.000000 0.923880
v -0.442289 -1.000000 0.896873
v -0.442289 1.000000 0.896873
v -0.500000 -1.000000 0.866025
v -0.500000 1.000000 0.866025
v -0.555570 -1.000000 0.831470
v -0.555570 1.000000 0.831470
v -0.608761 -1.000000 0.793353
v -0.608761 1.000000 0.793353
v -0.659346 -1.000000 0.751840
v -0.659346 1.000000 0.751840
v -0.707107 -1.000000 0.707107
v -0.707107 1.000000 0.707107
v -0.751840 -1.000000 0.659346
v -0.751840 1.000000 0.659346
v -0.793353 -1.000000 0.608761
v -0.793353 1.000000 0.608761
v -0.831470 -1.000000 0.555570
v -0.831470 1.000000 0.555570
v -0.866025 -1.000000 0.500000
v -0.866025 1.000000 0.500000
v -0.896873 -1.000000 0.442289
v -0.896873 1.000000 0.442289
v -0.923880 -1.000000 0.382683
v -0.923880 1.000000 0.382683
v -0.946930 -1.000000 0.321439
v -0.946930 1.000000 0.321439
v -0.965926 -1.000000 0.258819
v -0.965926 1.000000 0.258819
v -0.980785 -1.000000 0.195090
v -0.980785 1.000000 0.195090
v -0.991445 -1.000000 0.130526
v -0.991445 1.000000 0.130526
v -0.997859 -1.000000 0.065403
v -0.997859 1.000000 0.065403
v -1.000000 -1.000000 0.000000
v -1.000000 1.000000 0.000000
v -0.997859 -1.000000 -0.065403
v -0.997859 1.000000 -0.065403
v -0.991445 -1.000000 -0.130526
v -0.991445 1.000000 -0.130526
v -0.980785 -1.000000 -0.195090
v -0.980785 1.000000 -0.195090
v -0.965926 -1.000000 -0.258819
v -0.965926 1.000000 -0.258819
v -0.946930 -1.000000 -0.321439
v -0.946930 1.000000 -0.321439
v -0.923880 -1.000000 -0.382683
v -0.923880 1.000000 -0.382683
v -0.896873 -1.000000 -0.442289
v -0.896873 1.000000 -0.442289
v -0.866025 -1.000000 -0.500000
v -0.866025 1.000000 -0.500000
v -0.831470 -1.000000 -0.555570
v -0.831470 1.000000 -0.555570
v -0.793353 -1.000000 -0.608761
v -0.793353 1.000000 -0.608761
v -0.751840 -1.000000 -0.659346
v -0.751840 1.000000 -0.659346
v -0.707107 -1.000000 -0.707107
v -0.707107 1.000000 -0.707107
v -0.659346 -1.000000 -0.751840
v -0.659346 1.000000 -0.751840
v -0.608761 -1.000000 -0.793353
v -0.608761 1.000000 -0.793353
v -0.555570 -1.000000 -0.831470
v -0.555570 1.000000 -0.831470
v -0.500000 -1.000000 -0.866025
v -0.500000 1.000000 -0.866025
v -0.442289 -1.000000 -0.896873
v -0.442289 1.000000 -0.896873
v -0.382683 -1.000000 -0.923880
v -0.382683 1.000000 -0.923880
v -0.321439 -1.000000 -0.946930
v -0.321439 1.000000 -0.946930
v -0.258819 -1.000000 -0.965926
v -0.258819 1.000000 -0.965926
v -0.195090 -1.000000 -0.980785
v -0.195090 1.000000 -0.980785
v -0.130526 -1.000000 -0.991445
v -0.130526 1.000000 -0.991445
v -0.065403 -1.000000 -0.997859
v -0.065403 1.000000 -0.997859
v 0.995283 0.072368 0.091561
v 0.995283 -0.072368 0.091561
v 0.994608 0.095795 0.098411
v 0.996157 0.000000 0.082681
v 0.996060 0.024322 0.083671
v 0.995768 -0.048495 0.086638
v 0.996060 -0.024322 0.083671
v 0.995768 0.048495 0.086638
v 0.991445 -0.162674 0.130526
v 0.991493 -0.161975 0.130041
v 0.991445 0.162674 0.130526
v 0.991493 0.161975 0.130041
v 0.992707 0.140737 0.117711
v 0.993748 0.118632 0.107145
v 0.994608 -0.095795 0.098411
v 0.993748 -0.118632 0.107145
v 0.992707 -0.140737 0.117711
v 0.986755 0.201329 0.158932
v 0.985758 0.207799 0.164973
v 0.989268 -0.182213 0.143712
v 0.989268 0.182213 0.143712
v 0.980785 0.235679 0.195090
v 0.980785 -0.235679 0.195090
v 0.986755 -0.201329 0.158932
v 0.985758 -0.207799 0.164973
v 0.983910 -0.219203 0.176166
v 0.983910 0.219203 0.176166
v 0.976213 -0.250795 0.214698
v 0.980773 -0.235726 0.195143
v 0.980773 0.235726 0.195143
v 0.976213 0.250795 0.214698
v 0.966219 -0.276212 0.257561
v 0.965926 -0.276743 0.258819
v 0.967782 -0.272779 0.250859
v 0.965926 0.276743 0.258819
v 0.966219 0.276212 0.257561
v 0.971386 -0.264318 0.235403
v 0.967782 0.272779 0.250859
v 0.971386 0.264318 0.235403
v 0.959307 -0.286403 0.280638
v 0.954436 0.292092 0.296697
v 0.959307 0.286403 0.280638
v 0.946930 0.298897 0.321439
v 0.946930 -0.298897 0.321439
v 0.954436 -0.292092 0.296697
v 0.951888 -0.294828 0.305095
v 0.951888 0.294828 0.305095
v 0.940002 -0.302759 0.339846
v 0.946584 0.299140 0.322358
v 0.942965 -0.301435 0.331974
v 0.946584 -0.299140 0.322358
v 0.942965 0.301435 0.331974
v 0.935368 0.304554 0.352160
v 0.940002 0.302759 0.339846
v 0.923880 0.306665 0.382683
v 0.928775 -0.306323 0.369677
v 0.926113 -0.306572 0.376750
v 0.923880 -0.306665 0.382683
v 0.926113 0.306572 0.376750
v 0.928775 0.306323 0.369677
v 0.929747 -0.306183 0.367094
v 0.935368 -0.304554 0.352160
v 0.931774 -0.305696 0.361707
v 0.931774 0.305696 0.361707
v 0.929747 0.306183 0.367094
v 0.907030 0.304624 0.419870
v 0.911214 0.305759 0.410636
v 0.913282 0.306183 0.406073
v 0.914707 -0.306357 0.402928
v 0.914707 0.306357 0.402928
v 0.920710 -0.306709 0.389678
v 0.920710 0.306709 0.389678
v 0.923572 -0.306682 0.383361
v 0.923572 0.306682 0.383361
v 0.917806 0.306605 0.396087
v 0.917806 -0.306605 0.396087
v 0.901634 -0.302841 0.431780
v 0.897950 -0.301435 0.439912
v 0.896873 -0.300852 0.442289
v 0.897950 0.301435 0.439912
v 0.896873 0.300852 0.442289
v 0.901634 0.302841 0.431780
v 0.913282 -0.306183 0.406073
v 0.911214 -0.305759 0.410636
v 0.907030 -0.304624 0.419870
v 0.881456 0.292739 0.471132
v 0.884614 0.294828 0.465224
v 0.893851 -0.299497 0.447941
v 0.893851 0.299497 0.447941
v 0.866025 -0.280453 0.500000
v 0.872645 -0.286403 0.487615
v 0.866025 0.280453 0.500000
v 0.881456 -0.292739 0.471132
v 0.884614 -0.294828 0.465224
v 0.872645 0.286403 0.487615
v 0.848692 0.264318 0.527875
v 0.859034 0.274759 0.511244
v 0.860572 -0.276212 0.508771
v 0.860572 0.276212 0.508771
v 0.859034 -0.274759 0.511244
v 0.831470 -0.242275 0.555570
v 0.837465 -0.250795 0.545929
v 0.831470 0.242275 0.555570
v 0.848692 -0.264318 0.527875
v 0.837465 0.250795 0.545929
v 0.812416 0.214644 0.582160
v 0.815058 0.219203 0.578473
v 0.826262 -0.235726 0.562838
v 0.826262 0.235726 0.562838
v 0.796092 -0.182213 0.604940
v 0.793353 -0.175340 0.608761
v 0.796092 0.182213 0.604940
v 0.793353 0.175340 0.608761
v 0.812416 -0.214644 0.582160
v 0.815058 -0.219203 0.578473
v 0.805077 -0.201329 0.592401
v 0.805077 0.201329 0.592401
v 0.772856 0.118632 0.633738
v 0.779591 0.140737 0.625531
v 0.787451 -0.161975 0.615953
v 0.787451 0.161975 0.615953
v 0.779591 -0.140737 0.625531
v 0.757260 0.000000 0.652741
v 0.757892 -0.024322 0.651971
v 0.759783 -0.048495 0.649668
v 0.757892 0.024322 0.651971
v 0.759783 0.048495 0.649668
v 0.762921 0.072368 0.645843
v 0.772856 -0.118632 0.633738
v 0.767288 -0.095795 0.640522
v 0.767288 0.095795 0.640522
v 0.762921 -0.072368 0.645843
vn 0.0327 -0.0000 -0.9995
vn 0.0980 -0.0000 -0.9952
vn 0.1629 -0.0000 -0.9866
vn 0.2271 -0.0000 -0.9739
vn 0.2903 -0.0000 -0.9569
vn 0.3522 -0.0000 -0.9359
vn 0.4127 -0.0000 -0.9109
vn 0.4714 -0.0000 -0.8819
vn 0.5281 -0.0000 -0.8492
vn 0.5825 -0.0000 -0.8128
vn 0.6344 -0.0000 -0.7730
vn 0.6836 -0.0000 -0.7299
vn 0.7299 -0.0000 -0.6836
vn 0.7730 -0.0000 -0.6344
vn 0.8128 -0.0000 -0.5825
vn 0.8492 -0.0000 -0.5281
vn 0.8819 -0.0000 -0.4714
vn 0.9109 -0.0000 -0.4127
vn 0.9359 -0.0000 -0.3522
vn 0.9569 -0.0000 -0.2903
vn 0.9739 -0.0000 -0.2271
vn 0.9866 -0.0000 -0.1629
vn 0.9952 -0.0000 -0.0980
vn 0.9995 -0.0000 -0.0327
vn 0.9995 -0.0000 0.0327
vn 0.9952 -0.0000 0.0980
vn 0.9866 -0.0000 0.1629
vn 0.9739 -0.0000 0.2271
vn 0.9569 -0.0000 0.2903
vn 0.9359 -0.0000 0.3522
vn 0.9109 -0.0000 0.4127
vn 0.8819 -0.0000 0.4714
vn 0.8492 -0.0000 0.5281
vn 0.8128 -0.0000 0.5825
vn 0.7730 -0.0000 0.6344
vn 0.7299 -0.0000 0.6836
vn 0.6836 -0.0000 0.7299
vn 0.6344 -0.0000 0.7730
vn 0.5825 -0.0000 0.8128
vn 0.5281 -0.0000 0.8492
vn 0.4714 -0.0000 0.8819
vn 0.4127 -0.0000 0.9109
vn 0.3522 -0.0000 0.9359
vn 0.2903 -0.0000 0.9569
vn 0.2271 -0.0000 0.9739
vn 0.1629 -0.0000 0.9866
vn 0.0980 -0.0000 0.9952
vn 0.0327 -0.0000 0.9995
vn -0.0327 -0.0000 0.9995
vn -0.0980 -0.0000 0.9952
vn -0.1629 -0.0000 0.9866
vn -0.2271 -0.0000 0.9739
vn -0.2903 -0.0000 0.9569
vn -0.3522 -0.0000 0.9359
vn -0.4127 -0.0000 0.9109
vn -0.4714 -0.0000 0.8819
vn -0.5281 -0.0000 0.8492
vn -0.5825 -0.0000 0.8128
vn -0.6344 -0.0000 0.7730
vn -0.6836 -0.0000 0.7299
vn -0.7299 -0.0000 0.6836
vn -0.7730 -0.0000 0.6344
vn -0.8128 -0.0000 0.5825
vn -0.8492 -0.0000 0.5281
vn -0.8819 -0.0000 0.4714
vn -0.9109 -0.0000 0.4127
vn -0.9359 -0.0000 0.3522
vn -0.9569 -0.0000 0.2903
vn -0.9739 -0.0000 0.2271
vn -0.9866 -0.0000 0.1629
vn -0.9952 -0.0000 0.0980
vn -0.9995 -0.0000 0.0327
vn -0.9995 -0.0000 -0.0327
vn -0.9952 -0.0000 -0.0980
vn -0.9866 -0.0000 -0.1629
vn -0.9739 -0.0000 -0.2271
vn -0.9569 -0.0000 -0.2903
vn -0.9359 -0.0000 -0.3522
vn -0.9109 -0.0000 -0.4127
vn -0.8819 -0.0000 -0.4714
vn -0.8492 -0.0000 -0.5281
vn -0.8128 -0.0000 -0.5825
vn -0.7730 -0.0000 -0.6344
vn -0.7299 -0.0000 -0.6836
vn -0.6836 -0.0000 -0.7299
vn -0.6344 -0.0000 -0.7730
vn -0.5825 -0.0000 -0.8128
vn -0.5281 -0.0000 -0.8492
vn -0.4714 -0.0000 -0.8819
vn -0.4127 -0.0000 -0.9109
vn -0.3522 -0.0000 -0.9359
vn -0.2903 -0.0000 -0.9569
vn -0.2271 -0.0000 -0.9739
vn -0.1629 -0.0000 -0.9866
vn -0.0980 -0.0000 -0.9952
vn -0.0327 -0.0000 -0.9995
vt 1.000000 0.018266
vt 1.000000 1.000000
vt 0.989583 1.000000
vt 0.989583 0.018266
vt 0.979167 1.000000
vt 0.979167 0.018266
vt 0.968750 1.000000
vt 0.968750 0.018266
vt 0.958333 1.000000
vt 0.958333 0.018266
vt 0.947917 1.000000
vt 0.947917 0.018266
vt 0.937500 1.000000
vt 0.937500 0.018266
vt 0.927083 1.000000
vt 0.927083 0.018266
vt 0.916667 1.000000
vt 0.916667 0.018266
vt 0.906250 1.000000
vt 0.906250 0.018266
vt 0.895833 1.000000
vt 0.895833 0.018266
vt 0.885416 1.000000
vt 0.885416 0.018266
vt 0.875000 1.000000
vt 0.875000 0.018266
vt 0.864583 1.000000
vt 0.864583 0.018266
vt 0.854166 1.000000
vt 0.854166 0.018266
vt 0.843750 1.000000
vt 0.843750 0.018266
vt 0.833333 1.000000
vt 0.833333 0.018266
vt 0.822916 1.000000
vt 0.822916 0.018266
vt 0.812500 1.000000
vt 0.812500 0.018266
vt 0.802083 1.000000
vt 0.802083 0.018266
vt 0.791666 1.000000
vt 0.791666 0.018266
vt 0.781250 1.000000
vt 0.781250 0.018266
vt 0.770833 1.000000
vt 0.770833 0.018266
vt 0.760416 1.000000
vt 0.760416 0.018266
vt 0.750000 1.000000
vt 0.750000 0.018266
vt 0.739583 1.000000
vt 0.739583 0.018266
vt 0.729166 0.429281
vt 0.729166 0.018266
vt 0.729166 1.000000
vt 0.729166 0.588984
vt 0.729244 0.588641
vt 0.731216 0.578216
vt 0.732906 0.567365
vt 0.734303 0.556156
vt 0.735399 0.544656
vt 0.736186 0.532937
vt 0.736661 0.521072
vt 0.736819 0.509133
vt 0.736661 0.497194
vt 0.736186 0.485328
vt 0.735399 0.473610
vt 0.734303 0.462110
vt 0.732906 0.450900
vt 0.731216 0.440050
vt 0.729244 0.429625
vt 0.718749 1.000000
vt 0.718749 0.624820
vt 0.721803 0.616732
vt 0.723609 0.611134
vt 0.724583 0.607958
vt 0.727039 0.598575
vt 0.718749 0.393446
vt 0.718749 0.018266
vt 0.727039 0.419690
vt 0.724583 0.410307
vt 0.723609 0.407131
vt 0.721803 0.401533
vt 0.708333 1.000000
vt 0.708333 0.644977
vt 0.708538 0.644716
vt 0.709634 0.643031
vt 0.712160 0.638878
vt 0.715544 0.632240
vt 0.718741 0.624843
vt 0.708333 0.373289
vt 0.708333 0.018266
vt 0.718741 0.393423
vt 0.715544 0.386026
vt 0.712160 0.379387
vt 0.709634 0.375234
vt 0.708538 0.373549
vt 0.697916 1.000000
vt 0.697916 0.655852
vt 0.700635 0.653854
vt 0.702032 0.652511
vt 0.704703 0.649718
vt 0.697916 0.362414
vt 0.697916 0.018266
vt 0.704703 0.368547
vt 0.702032 0.365754
vt 0.700635 0.364412
vt 0.687499 1.000000
vt 0.687499 0.659665
vt 0.688509 0.659619
vt 0.689712 0.659496
vt 0.690151 0.659428
vt 0.691067 0.659189
vt 0.692691 0.658628
vt 0.694785 0.657747
vt 0.696124 0.657097
vt 0.697760 0.655971
vt 0.687499 0.358601
vt 0.687499 0.018266
vt 0.697760 0.362295
vt 0.696124 0.361168
vt 0.694785 0.360518
vt 0.692691 0.359637
vt 0.691067 0.359077
vt 0.690151 0.358837
vt 0.689712 0.358769
vt 0.688509 0.358647
vt 0.677083 1.000000
vt 0.677083 0.656811
vt 0.677498 0.657097
vt 0.678919 0.657787
vt 0.681001 0.658663
vt 0.682614 0.659220
vt 0.683412 0.659428
vt 0.683961 0.659514
vt 0.685157 0.659635
vt 0.686277 0.659686
vt 0.687381 0.659673
vt 0.677083 0.361454
vt 0.677083 0.018266
vt 0.687381 0.358593
vt 0.686277 0.358580
vt 0.685157 0.358630
vt 0.683961 0.358752
vt 0.683412 0.358837
vt 0.682614 0.359046
vt 0.681001 0.359603
vt 0.678919 0.360478
vt 0.677498 0.361168
vt 0.666666 1.000000
vt 0.666666 0.646798
vt 0.668901 0.649719
vt 0.671877 0.652829
vt 0.672943 0.653854
vt 0.676062 0.656146
vt 0.666666 0.371468
vt 0.666666 0.018266
vt 0.676062 0.362120
vt 0.672943 0.364412
vt 0.671877 0.365437
vt 0.668901 0.368547
vt 0.656249 1.000000
vt 0.656249 0.628058
vt 0.658057 0.632240
vt 0.661441 0.638878
vt 0.664558 0.644003
vt 0.665022 0.644716
vt 0.656249 0.390208
vt 0.656249 0.018266
vt 0.665022 0.373549
vt 0.664558 0.374262
vt 0.661441 0.379387
vt 0.658057 0.386026
vt 0.645833 1.000000
vt 0.645833 0.595202
vt 0.646581 0.598575
vt 0.649037 0.607959
vt 0.651042 0.614494
vt 0.651764 0.616732
vt 0.654826 0.624843
vt 0.645833 0.423064
vt 0.645833 0.018266
vt 0.654826 0.393423
vt 0.651764 0.401533
vt 0.651042 0.403771
vt 0.649037 0.410307
vt 0.646581 0.419690
vt 0.635416 1.000000
vt 0.635416 0.018266
vt 0.644352 0.429625
vt 0.642379 0.440050
vt 0.640689 0.450900
vt 0.639292 0.462110
vt 0.638197 0.473610
vt 0.637409 0.485328
vt 0.636935 0.497194
vt 0.636776 0.509133
vt 0.636935 0.521072
vt 0.637409 0.532937
vt 0.638197 0.544656
vt 0.639292 0.556156
vt 0.640689 0.567365
vt 0.642379 0.578216
vt 0.644352 0.588641
vt 0.624999 1.000000
vt 0.624999 0.018266
vt 0.614583 1.000000
vt 0.614583 0.018266
vt 0.604166 1.000000
vt 0.604166 0.018266
vt 0.593749 1.000000
vt 0.593749 0.018266
vt 0.583333 1.000000
vt 0.583333 0.018266
vt 0.572916 1.000000
vt 0.572916 0.018266
vt 0.562499 1.000000
vt 0.562499 0.018266
vt 0.552082 1.000000
vt 0.552082 0.018266
vt 0.541666 1.000000
vt 0.541666 0.018266
vt 0.531249 1.000000
vt 0.531249 0.018266
vt 0.520832 1.000000
vt 0.520832 0.018266
vt 0.510416 1.000000
vt 0.510416 0.018266
vt 0.499999 1.000000
vt 0.499999 0.018266
vt 0.489582 1.000000
vt 0.489582 0.018266
vt 0.479166 1.000000
vt 0.479166 0.018266
vt 0.468749 1.000000
vt 0.468749 0.018266
vt 0.458332 1.000000
vt 0.458332 0.018266
vt 0.447916 1.000000
vt 0.447916 0.018266
vt 0.437499 1.000000
vt 0.437499 0.018266
vt 0.427082 1.000000
vt 0.427083 0.018266
vt 0.416666 1.000000
vt 0.416666 0.018266
vt 0.406249 1.000000
vt 0.406249 0.018266
vt 0.395833 1.000000
vt 0.395833 0.018266
vt 0.385416 1.000000
vt 0.385416 0.018266
vt 0.374999 1.000000
vt 0.374999 0.018266
vt 0.364583 1.000000
vt 0.364583 0.018266
vt 0.354166 1.000000
vt 0.354166 0.018266
vt 0.343749 1.000000
vt 0.343749 0.018266
vt 0.333333 1.000000
vt 0.333333 0.018266
vt 0.322916 1.000000
vt 0.322916 0.018266
vt 0.312499 1.000000
vt 0.312499 0.018266
vt 0.302083 1.000000
vt 0.302083 0.018266
vt 0.291666 1.000000
vt 0.291666 0.018266
vt 0.281249 1.000000
vt 0.281249 0.018266
vt 0.270833 1.000000
vt 0.270833 0.018266
vt 0.260416 1.000000
vt 0.260416 0.018266
vt 0.249999 1.000000
vt 0.249999 0.018266
vt 0.239583 1.000000
vt 0.239583 0.018266
vt 0.229166 1.000000
vt 0.229166 0.018266
vt 0.218749 1.000000
vt 0.218749 0.018266
vt 0.208333 1.000000
vt 0.208333 0.018266
vt 0.197916 1.000000
vt 0.197916 0.018266
vt 0.187499 1.000000
vt 0.187499 0.018266
vt 0.177083 1.000000
vt 0.177083 0.018266
vt 0.166666 1.000000
vt 0.166666 0.018266
vt 0.156249 1.000000
vt 0.156249 0.018266
vt 0.145833 1.000000
vt 0.145833 0.018266
vt 0.135416 1.000000
vt 0.135416 0.018266
vt 0.124999 1.000000
vt 0.124999 0.018266
vt 0.114583 1.000000
vt 0.114583 0.018266
vt 0.104166 1.000000
vt 0.104166 0.018266
vt 0.093749 1.000000
vt 0.093749 0.018266
vt 0.083333 1.000000
vt 0.083333 0.018266
vt 0.072916 1.000000
vt 0.072916 0.018266
vt 0.062499 1.000000
vt 0.062499 0.018266
vt 0.052083 1.000000
vt 0.052083 0.018266
vt 0.041666 1.000000
vt 0.041666 0.018266
vt 0.031249 1.000000
vt 0.031249 0.018266
vt 0.020833 1.000000
vt 0.020833 0.018266
vt 0.010416 1.000000
vt 0.010416 0.018266
vt -0.000001 1.000000
vt -0.000001 0.018266
s 0
usemtl Material
f 1/1/1 2/2/1 4/3/1 3/4/1
f 3/4/2 4/3/2 6/5/2 5/6/2
f 5/6/3 6/5/3 8/7/3 7/8/3
f 7/8/4 8/7/4 10/9/4 9/10/4
f 9/10/5 10/9/5 12/11/5 11/12/5
f 11/12/6 12/11/6 14/13/6 13/14/6
f 13/14/7 14/13/7 16/15/7 15/16/7
f 15/16/8 16/15/8 18/17/8 17/18/8
f 17/18/9 18/17/9 20/19/9 19/20/9
f 19/20/10 20/19/10 22/21/10 21/22/10
f 21/22/11 22/21/11 24/23/11 23/24/11
f 23/24/12 24/23/12 26/25/12 25/26/12
f 25/26/13 26/25/13 28/27/13 27/28/13
f 27/28/14 28/27/14 30/29/14 29/30/14
f 29/30/15 30/29/15 32/31/15 31/32/15
f 31/32/16 32/31/16 34/33/16 33/34/16
f 33/34/17 34/33/17 36/35/17 35/36/17
f 35/36/18 36/35/18 38/37/18 37/38/18
f 37/38/19 38/37/19 40/39/19 39/40/19
f 39/40/20 40/39/20 42/41/20 41/42/20
f 41/42/21 42/41/21 44/43/21 43/44/21
f 43/44/22 44/43/22 46/45/22 45/46/22
f 45/46/23 46/45/23 48/47/23 47/48/23
f 47/48/24 48/47/24 50/49/24 49/50/24
f 49/50/25 50/49/25 52/51/25 51/52/25
f 201/53/26 53/54/26 51/52/26 52/51/26 54/55/26 203/56/26 204/57/26 205/58/26 206/59/26 195/60/26 193/61/26 200/62/26 197/63/26 196/64/26 199/65/26 198/66/26 194/67/26 207/68/26 208/69/26 209/70/26 202/71/26
f 203/56/27 54/55/27 56/72/27 214/73/27 219/74/27 211/75/27 210/76/27 213/77/27
f 215/78/27 55/79/27 53/54/27 201/53/27 212/80/27 216/81/27 217/82/27 218/83/27
f 214/73/28 56/72/28 58/84/28 227/85/28 228/86/28 230/87/28 231/88/28 223/89/28 222/90/28
f 225/91/28 57/92/28 55/79/28 215/78/28 221/93/28 220/94/28 229/95/28 226/96/28 224/97/28
f 227/85/29 58/84/29 60/98/29 235/99/29 239/100/29 233/101/29 234/102/29
f 236/103/29 59/104/29 57/92/29 225/91/29 232/105/29 237/106/29 238/107/29
f 235/99/30 60/98/30 62/108/30 247/109/30 251/110/30 252/111/30 257/112/30 256/113/30 245/114/30 246/115/30 244/116/30 241/117/30
f 250/118/30 61/119/30 59/104/30 236/103/30 243/120/30 242/121/30 240/122/30 254/123/30 255/124/30 253/125/30 248/126/30 249/127/30
f 247/109/31 62/108/31 64/128/31 273/129/31 272/130/31 274/131/31 258/132/31 259/133/31 260/134/31 262/135/31 267/136/31 264/137/31 266/138/31
f 271/139/31 63/140/31 61/119/31 250/118/31 265/141/31 263/142/31 268/143/31 261/144/31 275/145/31 276/146/31 277/147/31 269/148/31 270/149/31
f 273/129/32 64/128/32 66/150/32 284/151/32 287/152/32 278/153/32 279/154/32 281/155/32
f 282/156/32 65/157/32 63/140/32 271/139/32 280/158/32 286/159/32 285/160/32 283/161/32
f 284/151/33 66/150/33 68/162/33 295/163/33 297/164/33 288/165/33 289/166/33 291/167/33
f 293/168/33 67/169/33 65/157/33 282/156/33 290/170/33 292/171/33 296/172/33 294/173/33
f 295/163/34 68/162/34 70/174/34 305/175/34 304/176/34 309/177/34 298/178/34 299/179/34 301/180/34
f 303/181/34 69/182/34 67/169/34 293/168/34 300/183/34 307/184/34 306/185/34 308/186/34 302/187/34
f 305/175/35 70/174/35 72/188/35 71/189/35 69/182/35 303/181/35 312/190/35 314/191/35 321/192/35 322/193/35 324/194/35 317/195/35 316/196/35 315/197/35 318/198/35 319/199/35 320/200/35 323/201/35 310/202/35 311/203/35 313/204/35
f 71/189/36 72/188/36 74/205/36 73/206/36
f 73/206/37 74/205/37 76/207/37 75/208/37
f 75/208/38 76/207/38 78/209/38 77/210/38
f 77/210/39 78/209/39 80/211/39 79/212/39
f 79/212/40 80/211/40 82/213/40 81/214/40
f 81/214/41 82/213/41 84/215/41 83/216/41
f 83/216/42 84/215/42 86/217/42 85/218/42
f 85/218/43 86/217/43 88/219/43 87/220/43
f 87/220/44 88/219/44 90/221/44 89/222/44
f 89/222/45 90/221/45 92/223/45 91/224/45
f 91/224/46 92/223/46 94/225/46 93/226/46
f 93/226/47 94/225/47 96/227/47 95/228/47
f 95/228/48 96/227/48 98/229/48 97/230/48
f 97/230/49 98/229/49 100/231/49 99/232/49
f 99/232/50 100/231/50 102/233/50 101/234/50
f 101/234/51 102/233/51 104/235/51 103/236/51
f 103/236/52 104/235/52 106/237/52 105/238/52
f 105/238/53 106/237/53 108/239/53 107/240/53
f 107/240/54 108/239/54 110/241/54 109/242/54
f 109/242/55 110/241/55 112/243/55 111/244/55
f 111/244/56 112/243/56 114/245/56 113/246/56
f 113/246/57 114/245/57 116/247/57 115/248/57
f 115/248/58 116/247/58 118/249/58 117/250/58
f 117/250/59 118/249/59 120/251/59 119/252/59
f 119/252/60 120/251/60 122/253/60 121/254/60
f 121/254/61 122/253/61 124/255/61 123/256/61
f 123/256/62 124/255/62 126/257/62 125/258/62
f 125/258/63 126/257/63 128/259/63 127/260/63
f 127/260/64 128/259/64 130/261/64 129/262/64
f 129/262/65 130/261/65 132/263/65 131/264/65
f 131/264/66 132/263/66 134/265/66 133/266/66
f 133/266/67 134/265/67 136/267/67 135/268/67
f 135/268/68 136/267/68 138/269/68 137/270/68
f 137/270/69 138/269/69 140/271/69 139/272/69
f 139/272/70 140/271/70 142/273/70 141/274/70
f 141/274/71 142/273/71 144/275/71 143/276/71
f 143/276/72 144/275/72 146/277/72 145/278/72
f 145/278/73 146/277/73 148/279/73 147/280/73
f 147/280/74 148/279/74 150/281/74 149/282/74
f 149/282/75 150/281/75 152/283/75 151/284/75
f 151/284/76 152/283/76 154/285/76 153/286/76
f 153/286/77 154/285/77 156/287/77 155/288/77
f 155/288/78 156/287/78 158/289/78 157/290/78
f 157/290/79 158/289/79 160/291/79 159/292/79
f 159/292/80 160/291/80 162/293/80 161/294/80
f 161/294/81 162/293/81 164/295/81 163/296/81
f 163/296/82 164/295/82 166/297/82 165/298/82
f 165/298/83 166/297/83 168/299/83 167/300/83
f 167/300/84 168/299/84 170/301/84 169/302/84
f 169/302/85 170/301/85 172/303/85 171/304/85
f 171/304/86 172/303/86 174/305/86 173/306/86
f 173/306/87 174/305/87 176/307/87 175/308/87
f 175/308/88 176/307/88 178/309/88 177/310/88
f 177/310/89 178/309/89 180/311/89 179/312/89
f 179/312/90 180/311/90 182/313/90 181/314/90
f 181/314/91 182/313/91 184/315/91 183/316/91
f 183/316/92 184/315/92 186/317/92 185/318/92
f 185/318/93 186/317/93 188/319/93 187/320/93
f 187/320/94 188/319/94 190/321/94 189/322/94
f 189/322/95 190/321/95 192/323/95 191/324/95
f 191/324/96 192/323/96 2/325/96 1/326/96
